<svg xmlns="http://www.w3.org/2000/svg" viewBox="0 0 40 40">
  <path d="M18.19,34.55v4.67c0,.17-.1.33-.26.41-.99.49-2.15.49-3.13,0-.16-.07-.26-.23-.26-.41v-4.67h-3.69c-2.97,0-5.4-2.42-5.4-5.4v-3.69H.78c-.17,0-.33-.1-.41-.26-.49-.98-.49-2.14,0-3.12.07-.16.23-.26.41-.26h4.67c2.01,0,3.64,1.64,3.64,3.64v3.66c0,.99.81,1.8,1.8,1.8h3.66c2.01-.01,3.64,1.63,3.64,3.63ZM9.09,14.53v.02s-.01-3.66-.01-3.66c0-.99.81-1.8,1.8-1.8h3.66c2.01,0,3.64-1.63,3.64-3.64h-7.33c-2.99,0-5.4,2.42-5.4,5.4v7.32c2.01,0,3.64-1.63,3.64-3.64ZM39.64,14.81c-.08-.16-.24-.26-.41-.26h-4.67v-3.69c0-2.98-2.42-5.4-5.41-5.4h-3.69V.78c0-.18-.1-.34-.26-.41-.98-.49-2.14-.49-3.13,0-.16.08-.26.24-.26.41v4.67c0,2.01,1.63,3.64,3.64,3.64h3.66c.99,0,1.8.8,1.8,1.8v3.66c0,2.01,1.63,3.64,3.64,3.64h4.67c.18,0,.34-.1.41-.26.49-.98.49-2.14,0-3.12h.01ZM30.91,25.48v3.64c0,.99-.81,1.8-1.8,1.8h-3.66c-2.01,0-3.64,1.63-3.64,3.64h7.33c2.98,0,5.41-2.42,5.41-5.4v-7.32c-2.01,0-3.64,1.63-3.64,3.64Z"/>
</svg>
