<svg width="98" height="98" viewBox="0 0 98 98" fill="none" xmlns="http://www.w3.org/2000/svg">
    <path d="M5.44056 98C2.43025 98 0 95.56 0 92.56V19.94C0 17.63 0.920094 15.41 2.55026 13.78L13.7814 2.55C15.4116 0.92 17.6318 0 19.942 0H92.5594C95.5698 0 98 2.44 98 5.44V78.05C98 80.36 97.0799 82.58 95.4497 84.21L84.2186 95.44C82.5884 97.07 80.3682 97.99 78.058 97.99L5.44056 98Z" fill="url(#paint0_linear_611_381)"/>
    <path d="M5.44056 97.5C2.70694 97.5 0.5 95.2844 0.5 92.56V19.94C0.5 17.7625 1.36746 15.6697 2.9038 14.1336L14.1349 2.90357C15.6713 1.36739 17.7643 0.5 19.942 0.5H92.5594C95.2931 0.5 97.5 2.71559 97.5 5.44V78.05C97.5 80.2275 96.6325 82.3203 95.0962 83.8564L83.8651 95.0864C82.3287 96.6226 80.2357 97.49 78.058 97.49L5.44056 97.5Z" fill="rgb(108,0,244)" />
    <linearGradient id="paint0_linear_611_381" x1="-1.5" y1="101.5" x2="101.5" y2="-0.999998" gradientUnits="userSpaceOnUse">
        <stop stop-color="#D9D9D9"/>
        <stop offset="0.346154" stop-color="#737373"/>
        <stop offset="0.600962" stop-color="white"/>
        <stop offset="1" stop-color="#A6A6A6"/>
    </linearGradient>
</svg>
