<svg width="98" height="98" viewBox="0 0 98 98" fill="none" xmlns="http://www.w3.org/2000/svg">
    <path opacity="0.3" d="M19.9424 0.5H92.5596C95.2931 0.500066 97.5 2.71606 97.5 5.44043V78.0498C97.5 80.2272 96.6329 82.3203 95.0967 83.8564L83.8652 95.0869C82.3289 96.623 80.2353 97.4902 78.0576 97.4902L5.44043 97.5C2.70687 97.4999 0.5 95.2839 0.5 92.5596V19.9404C0.5 17.7631 1.3672 15.6699 2.90332 14.1338L14.1348 2.90332C15.6711 1.36716 17.7647 0.5 19.9424 0.5Z" fill="url(#paint0_linear_611_435)" stroke="#CBA6FF"/>
    <path d="M5.44056 97.5C2.70694 97.5 0.5 95.2844 0.5 92.56V19.94C0.5 17.7625 1.36746 15.6697 2.9038 14.1336L14.1349 2.90357C15.6713 1.36739 17.7643 0.5 19.942 0.5H92.5594C95.2931 0.5 97.5 2.71559 97.5 5.44V78.05C97.5 80.2275 96.6325 82.3203 95.0962 83.8564L83.8651 95.0864C82.3287 96.6226 80.2357 97.49 78.058 97.49L5.44056 97.5Z" stroke="rgba(203,166,255,0.5)" fill="rgba(0, 0, 0, 0.15)" />
    <linearGradient id="paint0_linear_611_435" x1="88.5" y1="2.00646" x2="3" y2="87.5065" gradientUnits="userSpaceOnUse">
        <stop stop-color="#D9D9D9"/>
        <stop offset="0.346154" stop-color="#737373"/>
        <stop offset="0.600962" stop-color="white"/>
        <stop offset="1" stop-color="#A6A6A6"/>
    </linearGradient>
</svg>
