<svg width="64" height="64" viewBox="0 0 65 44" fill="none" xmlns="http://www.w3.org/2000/svg">
    <path d="M56.1474 25.6498C52.5074 23.7498 47.9974 21.3948 44.0724 16.1048L45.3624 15.3598C46.0324 14.9698 46.3824 14.1648 46.1324 13.4298C45.7924 12.4198 44.6474 12.0198 43.7724 12.5248L42.2724 13.3898C41.9874 12.9098 41.7074 12.4048 41.4374 11.8848L42.8774 11.0548C43.5474 10.6648 43.8974 9.85977 43.6474 9.12477C43.3074 8.11477 42.1624 7.71477 41.2874 8.21977L40.0424 8.93977C39.4924 7.63477 38.9674 6.22977 38.4874 4.69977C38.2424 3.92477 37.8224 3.19977 37.2124 2.65977C35.6174 1.24977 33.4374 1.04977 31.6874 2.00977C27.1174 4.51477 21.3474 3.98477 17.3124 0.694774C16.9724 0.414774 16.5824 0.189774 16.1524 0.0847737C14.8774 -0.225226 13.6524 0.339774 13.0474 1.37477L3.53738 17.6148C3.45738 17.7048 3.38238 17.7998 3.31738 17.9098C3.25738 18.0148 3.21238 18.1198 3.17738 18.2248L0.227378 23.2698C0.227378 23.2698 0.227378 23.2698 0.227378 23.2748C0.207378 23.3098 0.192378 23.3498 0.177378 23.3898C0.147378 23.4498 0.117378 23.5098 0.0973778 23.5748C0.0823778 23.6148 0.0773778 23.6548 0.0673778 23.6948C0.0523778 23.7598 0.0323778 23.8198 0.0223778 23.8848C0.0173778 23.9298 0.0223778 23.9698 0.0223778 24.0148C0.0223778 24.0748 0.0123778 24.1398 0.0223778 24.1998C0.0223778 24.2448 0.0373778 24.2898 0.0423778 24.3348C0.0523778 24.3948 0.0573778 24.4498 0.0723778 24.5098C0.0823778 24.5548 0.107378 24.5998 0.122378 24.6398C0.142378 24.6948 0.157378 24.7498 0.182378 24.7998C0.202378 24.8448 0.232378 24.8798 0.257378 24.9198C0.287378 24.9698 0.312378 25.0198 0.347378 25.0648C0.377378 25.1048 0.412378 25.1348 0.442378 25.1698C0.482378 25.2148 0.517378 25.2598 0.562378 25.2998C0.597378 25.3298 0.637378 25.3548 0.677378 25.3848C0.727378 25.4198 0.772378 25.4598 0.822378 25.4898C0.822378 25.4898 0.822378 25.4898 0.827378 25.4898L24.3674 39.0798C24.3974 39.0948 24.4274 39.1148 24.4574 39.1298C24.9074 39.3848 24.7324 40.0648 24.2174 40.0648H1.71738C0.837378 40.0648 0.0473778 40.7248 0.00237781 41.6048C-0.0476222 42.5398 0.697378 43.3148 1.62738 43.3148H62.6274C63.5224 43.3148 64.2524 42.5848 64.2524 41.6898V35.2798C64.2524 29.8748 60.4974 27.9148 56.1474 25.6448V25.6498ZM15.3074 3.95477C15.4574 3.69977 15.7924 3.63477 16.0324 3.80477C21.0274 7.38477 27.8124 7.83977 33.2474 4.85977C33.6524 4.63477 34.1324 4.60977 34.5524 4.77977C34.7874 4.87477 35.2074 5.11477 35.3824 5.67477C35.8924 7.29477 36.4424 8.78977 37.0274 10.1798C37.1224 10.4098 37.0374 10.6748 36.8174 10.7998L30.0674 14.6948C29.3024 15.1348 28.9574 16.1048 29.3624 16.8898C29.6524 17.4548 30.2224 17.7698 30.8074 17.7698C31.0824 17.7698 31.3624 17.6998 31.6174 17.5498L38.1524 13.7798C38.3974 13.6398 38.7074 13.7298 38.8424 13.9798C38.9574 14.1898 39.0724 14.3948 39.1874 14.5998C39.3224 14.8398 39.2424 15.1398 39.0024 15.2748L32.5524 18.9998C31.7874 19.4398 31.4424 20.4098 31.8474 21.1948C32.1374 21.7598 32.7074 22.0748 33.2924 22.0748C33.5674 22.0748 33.8474 22.0048 34.1024 21.8548L40.8174 17.9798C41.0374 17.8548 41.3174 17.9148 41.4674 18.1198C45.7474 23.8898 50.6674 26.4598 54.6374 28.5298C57.7224 30.1398 59.6524 31.2198 60.4974 32.9248C60.6674 33.2648 60.4324 33.6598 60.0524 33.6598H38.5724C35.4724 33.6598 32.4174 32.8398 29.7324 31.2898L7.42238 18.4048C7.18238 18.2648 7.10238 17.9598 7.24238 17.7198L15.3074 3.95477ZM61.0024 39.5748C61.0024 39.8498 60.7774 40.0748 60.5024 40.0748H40.1674C35.1924 40.0748 30.2874 38.7598 25.9824 36.2748L4.29238 23.7548C4.05238 23.6148 3.97238 23.3098 4.11238 23.0698L5.09738 21.3898C5.23738 21.1548 5.54238 21.0698 5.77738 21.2098L28.1224 34.1098C31.2974 35.9448 34.9174 36.9148 38.5874 36.9148H60.5074C60.7824 36.9148 61.0074 37.1398 61.0074 37.4148V39.5748H61.0024Z" fill="#fff" />
</svg>
