<svg width="64" height="64" viewBox="17 17 64 64" fill="none" xmlns="http://www.w3.org/2000/svg">
    <path d="M38.5943 45.7789L43.0541 49.7438V41.5841L38.6343 44.874C38.3393 45.094 38.3193 45.534 38.5943 45.7789ZM65.8083 40.9141L59.6835 35.4693L63.4984 31.1795C64.0934 30.5095 64.0334 29.4795 63.3634 28.8845C62.6934 28.2846 61.6635 28.3496 61.0685 29.0195L57.0686 33.5194C55.9187 32.8794 54.6687 32.4394 53.3637 32.2144C55.9037 30.6845 57.6186 27.9296 57.6186 24.7497C57.6236 19.9149 53.7087 16 48.8789 16C45.164 16 41.9991 18.3199 40.7342 21.5898H36.5393C35.6444 21.5898 34.9144 22.3198 34.9144 23.2147C34.9144 24.1097 35.6444 24.8397 36.5393 24.8397H40.1442C40.1792 27.9796 41.8841 30.6945 44.3941 32.2094C42.2641 32.5794 40.2642 33.5194 38.6343 34.9743L31.9545 40.9141C29.3196 43.259 29.3546 47.3889 32.0245 49.6888L38.0643 54.8836L34.2644 59.1535C33.6694 59.8235 33.7294 60.8534 34.3994 61.4484C34.7094 61.7234 35.0944 61.8584 35.4794 61.8584C35.9294 61.8584 36.3743 61.6734 36.6943 61.3134L39.8042 57.8185L37.6393 74.7779C37.2193 78.0578 39.6142 81.0277 42.9091 81.3127C45.599 81.5477 48.0189 79.9027 48.8889 77.4578C49.7539 79.9027 52.1788 81.5427 54.8637 81.3127C58.1586 81.0277 60.5535 78.0578 60.1335 74.7779L57.8036 56.5236L65.7483 49.6888C68.4182 47.3889 68.4532 43.259 65.8183 40.9141H65.8083ZM44.1191 21.3898C45.174 19.8949 46.914 18.9149 48.8839 18.9149C50.8538 18.9149 52.5938 19.8949 53.6487 21.3898C53.7087 21.4748 53.6487 21.5898 53.5437 21.5898H44.2291C44.1291 21.5898 44.0641 21.4748 44.1241 21.3898H44.1191ZM43.0591 24.9697C43.0591 24.8997 43.1141 24.8397 43.1891 24.8397H54.5737C54.6437 24.8397 54.7037 24.8997 54.7037 24.9697C54.5837 28.0846 52.0288 30.5695 48.8839 30.5695C45.739 30.5695 43.1841 28.0846 43.0641 24.9697H43.0591ZM46.289 75.8679C46.079 77.5428 44.4841 78.7178 42.7791 78.3478C41.2892 78.0278 40.3492 76.5379 40.5392 75.0279L40.7192 73.633C40.7342 73.508 40.8392 73.413 40.9692 73.413H46.314C46.464 73.413 46.579 73.543 46.564 73.693L46.294 75.8629L46.289 75.8679ZM50.7138 69.7281L49.7039 61.5934C49.6539 61.1734 49.2989 60.8584 48.8739 60.8584C48.4489 60.8584 48.0939 61.1734 48.0439 61.5934L47.039 69.7281C47.009 69.9781 46.794 70.1681 46.544 70.1681H41.7242C41.4242 70.1681 41.1892 69.9031 41.2292 69.6031L42.5791 59.0235C42.6091 58.7735 42.8241 58.5885 43.0741 58.5885H54.6787C54.9287 58.5885 55.1437 58.7735 55.1737 59.0235L56.5236 69.6031C56.5636 69.9031 56.3286 70.1681 56.0286 70.1681H51.2038C50.9538 70.1681 50.7388 69.9781 50.7088 69.7281H50.7138ZM54.9887 78.3478C53.2837 78.7178 51.6788 77.5478 51.4738 75.8679L51.2038 73.698C51.1838 73.548 51.3038 73.418 51.4538 73.418H56.7986C56.9236 73.418 57.0286 73.513 57.0486 73.638L57.2286 75.0329C57.4236 76.5429 56.4786 78.0278 54.9937 78.3528L54.9887 78.3478ZM63.8384 47.4789L55.5037 54.6486C54.9887 55.0936 54.3337 55.3336 53.6537 55.3336H44.1041C43.4241 55.3336 42.7691 55.0886 42.2541 54.6486L33.9194 47.4789C32.5845 46.3289 32.5645 44.264 33.8844 43.094L40.5642 37.1493C42.1641 35.7293 44.2341 34.9393 46.374 34.9393H51.3788C53.5237 34.9393 55.5887 35.7243 57.1886 37.1493L63.8684 43.094C65.1883 44.264 65.1683 46.3289 63.8334 47.4789H63.8384ZM54.7087 41.5841V49.7438L59.1685 45.7789C59.4435 45.534 59.4285 45.094 59.1285 44.874L54.7087 41.5841Z" fill="#ffffff"/>
</svg>
