<svg width="64" height="64" viewBox="0 0 63 65" fill="none" xmlns="http://www.w3.org/2000/svg">
    <path d="M62.476 61.89C62.476 61.88 62.476 61.87 62.456 61.86C62.446 61.83 62.416 61.8 62.396 61.75C62.346 61.65 62.266 61.52 62.166 61.35C61.976 61.01 61.706 60.54 61.376 60C60.746 58.96 59.866 57.62 58.986 56.64C57.436 54.91 55.416 53.99 53.406 53.46C51.416 52.94 49.276 52.76 47.436 52.61C45.496 52.45 43.946 52.32 42.776 51.97C41.666 51.63 41.306 51.22 41.176 50.72C41.126 50.54 41.076 50.11 41.056 49.42C41.036 48.78 41.056 48.04 41.076 47.33C41.096 46.62 41.136 45.96 41.166 45.47C41.176 45.32 41.186 45.22 41.196 45.11C43.376 43.31 45.366 41.09 46.776 38.67C47.216 37.91 47.766 36.47 48.166 35.37C48.326 34.93 48.456 34.54 48.586 34.2C49.036 34.13 49.556 34.02 50.146 33.81C51.646 33.29 53.536 32.23 54.786 30.07C56.676 26.82 56.386 23.05 54.536 20.98C53.546 19.88 52.066 19.25 50.426 19.71C50.096 19.8 49.776 19.95 49.466 20.12C49.376 18.31 49.236 16.19 48.986 14.83C47.356 6.3 40.946 0 31.336 0C21.726 0 15.306 6.3 13.696 14.79C13.436 16.15 13.316 18.26 13.246 20.07C12.936 19.91 12.626 19.76 12.306 19.67C10.656 19.22 9.176 19.84 8.176 20.93C6.306 23 5.986 26.76 7.876 30.03C9.136 32.19 11.016 33.26 12.526 33.77C13.116 33.97 13.636 34.08 14.086 34.16C14.206 34.51 14.346 34.9 14.496 35.33C14.896 36.43 15.446 37.88 15.886 38.63C17.296 41.06 19.296 43.28 21.476 45.08C21.476 45.19 21.486 45.28 21.496 45.43C21.526 45.92 21.566 46.58 21.586 47.29C21.616 48 21.626 48.74 21.606 49.38C21.586 50.07 21.536 50.5 21.486 50.68C21.346 51.18 20.996 51.59 19.886 51.93C18.716 52.28 17.166 52.41 15.226 52.57C13.376 52.72 11.246 52.9 9.246 53.42C7.226 53.95 5.216 54.87 3.666 56.6C2.786 57.58 1.906 58.93 1.276 59.96C0.955997 60.49 0.685997 60.96 0.485997 61.31C0.395997 61.48 0.315997 61.62 0.265997 61.71C0.235997 61.76 0.215997 61.8 0.205997 61.82C0.205997 61.83 0.195997 61.84 0.185997 61.85H0.195997C-0.234003 62.65 0.0659974 63.65 0.875997 64.08C1.686 64.51 2.676 64.21 3.106 63.4C3.106 63.4 3.106 63.39 3.116 63.38C3.126 63.36 3.146 63.32 3.166 63.28C3.216 63.19 3.286 63.07 3.366 62.91C3.546 62.59 3.796 62.15 4.096 61.66C4.706 60.65 5.466 59.52 6.126 58.78C7.096 57.7 8.436 57.02 10.086 56.59C11.756 56.15 13.596 55.99 15.496 55.84C17.296 55.69 19.266 55.55 20.846 55.07C22.486 54.57 24.116 53.58 24.666 51.52C24.826 50.93 24.876 50.16 24.896 49.46C24.916 48.82 24.896 48.12 24.876 47.46C27.006 48.67 29.246 49.44 31.316 49.44C33.386 49.44 35.636 48.66 37.766 47.45C37.746 48.11 37.726 48.81 37.746 49.46C37.766 50.16 37.816 50.93 37.976 51.52C38.526 53.58 40.156 54.57 41.806 55.07C43.386 55.55 45.356 55.7 47.156 55.84C49.056 55.99 50.896 56.15 52.556 56.59C54.206 57.02 55.546 57.7 56.516 58.78C57.186 59.53 57.936 60.66 58.546 61.66C58.846 62.15 59.096 62.59 59.276 62.91C59.366 63.07 59.436 63.19 59.486 63.28C59.506 63.32 59.526 63.36 59.536 63.38C59.536 63.38 59.536 63.4 59.546 63.4C59.976 64.21 60.976 64.51 61.776 64.08C62.576 63.65 62.876 62.65 62.456 61.85L62.476 61.89ZM16.936 15.4C18.286 8.31 23.456 3.3 31.336 3.3C39.216 3.3 44.386 8.31 45.736 15.4C45.856 16 45.946 16.83 46.016 17.76L37.116 10.28C36.696 9.93 36.136 9.81 35.616 9.96C35.086 10.1 34.676 10.5 34.496 11.02C34.496 11.02 34.496 11.03 34.496 11.04C34.496 11.06 34.476 11.09 34.456 11.13C34.426 11.22 34.386 11.34 34.326 11.5C34.216 11.81 34.046 12.25 33.836 12.73C33.416 13.74 32.886 14.82 32.376 15.5C31.726 16.38 30.616 17.25 29.446 18.01L30.556 14.5C30.766 13.86 30.556 13.17 30.046 12.74C29.536 12.31 28.816 12.23 28.216 12.54L16.616 18.63C16.686 17.36 16.796 16.16 16.936 15.38V15.4ZM37.876 43.51C35.456 45.24 33.076 46.17 31.336 46.17C29.596 46.17 27.216 45.24 24.796 43.51C22.416 41.8 20.196 39.47 18.746 36.98C18.486 36.53 18.036 35.39 17.606 34.21C17.396 33.65 17.216 33.13 17.086 32.75C17.026 32.56 16.966 32.4 16.936 32.29C16.916 32.24 16.906 32.19 16.896 32.17C16.896 32.16 16.896 32.14 16.886 32.14C16.666 31.46 16.036 31.01 15.316 31.01C15.306 31.01 15.276 31.01 15.236 31.01C15.156 31.01 15.026 31 14.876 30.98C14.556 30.94 14.096 30.85 13.596 30.68C12.596 30.34 11.476 29.68 10.726 28.4C9.396 26.11 9.896 23.96 10.606 23.18C10.906 22.85 11.166 22.81 11.416 22.88C11.776 22.98 12.516 23.42 13.376 24.89C13.756 25.54 14.506 25.85 15.236 25.65C15.956 25.46 16.456 24.8 16.456 24.06V23.79C16.456 23.62 16.456 23.36 16.456 23.05C16.456 22.88 16.456 22.66 16.456 22.46L26.176 17.36L25.036 20.96C24.836 21.58 25.026 22.25 25.506 22.68C25.986 23.11 26.676 23.22 27.266 22.96C27.266 22.96 27.266 22.96 27.276 22.96C27.296 22.96 27.306 22.95 27.326 22.94C27.366 22.92 27.426 22.89 27.506 22.86C27.656 22.79 27.876 22.69 28.146 22.55C28.676 22.29 29.406 21.91 30.206 21.44C31.746 20.53 33.766 19.15 34.986 17.5C35.686 16.55 36.276 15.31 36.706 14.31L46.206 22.29C46.206 22.57 46.226 22.86 46.226 23.08C46.226 23.39 46.226 23.65 46.236 23.82C46.236 23.91 46.236 23.97 46.236 24.02V24.07V24.09C46.246 24.83 46.756 25.47 47.466 25.66C48.186 25.85 48.946 25.54 49.316 24.9C50.176 23.42 50.906 22.98 51.266 22.89C51.506 22.82 51.746 22.86 52.036 23.18C52.736 23.96 53.226 26.11 51.896 28.41C51.146 29.69 50.036 30.35 49.026 30.69C48.526 30.86 48.076 30.95 47.746 30.99C47.586 31.01 47.466 31.02 47.386 31.02C47.346 31.02 47.316 31.02 47.306 31.02C46.596 31.02 45.966 31.48 45.746 32.15C45.746 32.15 45.746 32.18 45.736 32.19C45.736 32.22 45.716 32.26 45.696 32.31C45.656 32.42 45.606 32.58 45.546 32.77C45.416 33.15 45.236 33.68 45.036 34.23C44.606 35.41 44.156 36.55 43.896 37C42.456 39.49 40.236 41.82 37.846 43.53L37.876 43.51Z" fill="#CBA6FF" />
</svg>
