<svg width="96" height="96" viewBox="-16 -16 80 80" fill="none" xmlns="http://www.w3.org/2000/svg">
    <path d="M45.5585 21.6892H27.7332C26.951 21.6892 26.3111 21.0493 26.3111 20.2672V2.44215C26.3111 1.19077 25.3726 0.0673723 24.1212 0.0033813C22.7916 -0.0677198 21.6895 0.991687 21.6895 2.31417V20.2672C21.6895 21.0493 21.0496 21.6892 20.2675 21.6892H2.44218C1.19079 21.6892 0.0673732 22.6278 0.00338134 23.8791C-0.0677207 25.2087 0.9917 26.3108 2.3142 26.3108H20.2675C21.0496 26.3108 21.6895 26.9507 21.6895 27.7328V45.5578C21.6895 46.8092 22.628 47.9326 23.8794 47.9966C25.2091 48.0677 26.3111 47.0083 26.3111 45.6858V27.7328C26.3111 26.9507 26.951 26.3108 27.7332 26.3108H45.6864C47.0018 26.3108 48.0612 25.2087 47.9972 23.8791C47.9333 22.6278 46.8098 21.6892 45.5585 21.6892Z" fill="#fff" />
</svg>
