<svg width="96" height="96" viewBox="-16 -16 80 80" fill="none" xmlns="http://www.w3.org/2000/svg">
    <path d="M47.3086 22.3596L25.6244 0.675408C25.5178 0.568765 25.3969 0.469231 25.269 0.383916C25.2121 0.348368 25.1552 0.32704 25.0983 0.291492C25.0201 0.248834 24.949 0.206177 24.8708 0.170629C24.7997 0.142191 24.7215 0.120862 24.6433 0.0995338C24.5793 0.0782051 24.5082 0.0568765 24.4443 0.0426573C24.1457 -0.0142191 23.8399 -0.0142191 23.5413 0.0426573C23.4703 0.0568765 23.4063 0.0853147 23.3423 0.0995338C23.2641 0.120862 23.1859 0.142191 23.1148 0.170629C23.0366 0.206177 22.9584 0.248834 22.8873 0.291492C22.8304 0.31993 22.7735 0.348368 22.7166 0.383916C22.5887 0.469231 22.4678 0.568765 22.3612 0.675408L0.677006 22.3596C-0.254346 23.2909 -0.225904 24.8195 0.769434 25.7153C1.70079 26.5542 3.15825 26.4191 4.03983 25.5375L20.47 9.10734C20.9179 8.65944 21.6858 8.97937 21.6858 9.61212V45.558C21.6858 46.8093 22.6242 47.9326 23.8755 47.9966C25.205 48.0677 26.307 47.0084 26.307 45.686V9.60501C26.307 8.97226 27.0748 8.65233 27.5227 9.10023L44.0524 25.6228C44.5003 26.0707 45.0975 26.2983 45.6876 26.2983C46.2777 26.2983 46.8678 26.0707 47.3228 25.6228C48.2257 24.7199 48.2257 23.2554 47.3228 22.3524L47.3086 22.3596Z" fill="#fff"/>
</svg>
