<svg width="64" height="64" viewBox="0 0 65 65" fill="none" xmlns="http://www.w3.org/2000/svg">
    <path d="M62.3703 27.36C61.1403 25.98 59.3003 25.21 57.2503 25.77C56.7003 25.92 56.1702 26.19 55.6603 26.51C55.5503 24.05 55.3703 21.03 55.0103 19.16C52.9303 8.15 44.6203 0 32.1603 0C19.7003 0 11.3902 8.15 9.30025 19.16C8.94025 21.03 8.78025 24.03 8.69025 26.48C8.19025 26.17 7.67025 25.92 7.13025 25.77C5.08025 25.21 3.24025 25.98 1.99025 27.35C-0.379752 29.96 -0.799752 34.76 1.64025 38.96C3.25025 41.73 5.66025 43.09 7.58025 43.75C8.41025 44.03 9.14025 44.18 9.74025 44.28C9.91025 44.76 10.1102 45.34 10.3302 45.97C10.8602 47.42 11.5702 49.29 12.1302 50.26C14.3502 54.07 17.6602 57.55 21.2002 60.07C24.6902 62.57 28.6403 64.32 32.1403 64.32C35.6403 64.32 39.5902 62.57 43.0802 60.07C46.6203 57.54 49.9403 54.07 52.1502 50.26C52.7103 49.29 53.4202 47.43 53.9502 45.97C54.1802 45.34 54.3703 44.76 54.5402 44.28C55.1402 44.19 55.8703 44.04 56.7103 43.75C58.6302 43.09 61.0402 41.73 62.6502 38.96C65.0802 34.77 64.6902 29.98 62.3503 27.36H62.3703ZM59.4002 37.06C58.3802 38.81 56.8503 39.71 55.4902 40.17C54.8102 40.4 54.2002 40.52 53.7603 40.58C53.5402 40.61 53.3702 40.62 53.2702 40.63C53.2102 40.63 53.1702 40.63 53.1603 40.63C52.3403 40.63 51.6202 41.15 51.3602 41.93C51.3602 41.93 51.3602 41.93 51.3602 41.94C51.3602 41.94 51.3503 41.96 51.3503 41.98C51.3403 42.01 51.3202 42.07 51.2902 42.14C51.2502 42.28 51.1703 42.48 51.0903 42.74C50.9203 43.24 50.6803 43.93 50.4103 44.67C49.8503 46.21 49.2502 47.73 48.9002 48.34C46.9902 51.64 44.0503 54.73 40.9002 56.98C37.7103 59.27 34.5303 60.52 32.1603 60.52C29.7903 60.52 26.6202 59.26 23.4202 56.98C20.2702 54.72 17.3402 51.64 15.4202 48.34C15.0602 47.73 14.4602 46.21 13.9102 44.67C13.6402 43.94 13.4102 43.25 13.2402 42.74C13.1502 42.49 13.0802 42.28 13.0302 42.14C13.0102 42.07 12.9902 42.01 12.9802 41.98C12.9802 41.96 12.9702 41.94 12.9702 41.94V41.93C12.7202 41.16 11.9902 40.63 11.1802 40.63C11.1802 40.63 11.1802 40.63 11.1702 40.63C11.1502 40.63 11.1102 40.63 11.0602 40.63C10.9502 40.63 10.7802 40.61 10.5602 40.58C10.1202 40.52 9.51025 40.41 8.83025 40.17C7.47025 39.7 5.94025 38.81 4.93025 37.06C3.13025 33.98 3.78025 31.04 4.81025 29.9C5.26025 29.4 5.70025 29.3 6.14025 29.42C6.71025 29.58 7.72025 30.22 8.87025 32.19C9.30025 32.93 10.1702 33.29 11.0002 33.07C11.8302 32.85 12.4002 32.1 12.4002 31.24V30.89C12.4002 30.66 12.4002 30.33 12.4002 29.92C12.4102 29.1 12.4302 27.97 12.4702 26.74C12.5502 24.23 12.7202 21.44 13.0202 19.87C14.8102 10.46 21.6903 3.78 32.1603 3.78C42.6303 3.78 49.5203 10.46 51.3003 19.87C51.6003 21.45 51.7903 24.25 51.8903 26.76C51.9403 27.99 51.9703 29.12 52.0003 29.94C52.0003 30.35 52.0103 30.68 52.0202 30.91C52.0202 31.02 52.0202 31.11 52.0202 31.17V31.25C52.0302 32.1 52.6002 32.85 53.4302 33.06C54.2502 33.27 55.1102 32.92 55.5402 32.18C56.6903 30.21 57.7002 29.57 58.2603 29.41C58.6903 29.29 59.1103 29.38 59.5503 29.88C60.5602 31.01 61.1903 33.95 59.3903 37.05L59.4002 37.06ZM39.7303 26.48C38.6803 26.48 37.8403 27.33 37.8403 28.37V30.26C37.8403 31.3 38.6903 32.15 39.7303 32.15C40.7703 32.15 41.6203 31.3 41.6203 30.26V28.37C41.6203 27.33 40.7703 26.48 39.7303 26.48ZM24.6002 32.16C25.6402 32.16 26.4902 31.31 26.4902 30.27V28.38C26.4902 27.34 25.6402 26.49 24.6002 26.49C23.5602 26.49 22.7102 27.34 22.7102 28.38V30.27C22.7102 31.31 23.5602 32.16 24.6002 32.16ZM38.8903 41.81C38.8903 41.81 38.8903 41.81 38.8703 41.82C38.8503 41.82 38.8102 41.85 38.7702 41.86C38.6702 41.91 38.5303 41.97 38.3403 42.05C37.9703 42.21 37.4202 42.42 36.7702 42.64C35.4502 43.08 33.7702 43.49 32.1702 43.49C30.5702 43.49 28.8902 43.08 27.5702 42.64C26.9202 42.42 26.3802 42.21 26.0002 42.05C25.8102 41.97 25.6602 41.9 25.5702 41.86C25.5302 41.84 25.4902 41.82 25.4702 41.82C25.4602 41.82 25.4602 41.81 25.4502 41.81C24.5202 41.35 23.3802 41.72 22.9202 42.66C22.4502 43.59 22.8302 44.73 23.7602 45.2C23.7602 45.2 23.7602 45.2 23.7702 45.2C23.7802 45.2 23.8002 45.21 23.8102 45.22C23.8402 45.23 23.8902 45.26 23.9602 45.29C24.0902 45.35 24.2702 45.43 24.5002 45.53C24.9502 45.72 25.5902 45.98 26.3602 46.23C27.8702 46.74 29.9803 47.27 32.1603 47.27C34.3403 47.27 36.4503 46.73 37.9603 46.23C38.7202 45.98 39.3603 45.72 39.8203 45.53C40.0503 45.43 40.2302 45.35 40.3602 45.29C40.4202 45.26 40.4702 45.23 40.5103 45.22C40.5303 45.21 40.5403 45.2 40.5503 45.2H40.5602C40.5602 45.2 40.5602 45.19 40.5202 45.11L40.5602 45.19C41.4902 44.73 41.8703 43.59 41.4002 42.65C40.9403 41.72 39.8003 41.34 38.8703 41.81H38.8903Z" fill="#CBA6FF" />
</svg>
