<svg width="38" height="66" viewBox="0 0 38 66" fill="none" xmlns="http://www.w3.org/2000/svg">
    <path d="M8.59646 29.78L13.0565 33.75V25.59L8.63646 28.88C8.33646 29.1 8.32646 29.54 8.59646 29.78ZM24.7065 25.59V33.75L29.1665 29.78C29.4365 29.54 29.4265 29.1 29.1265 28.88L24.7065 25.59ZM35.8165 24.91L29.1365 18.97C27.5065 17.52 25.5065 16.57 23.3765 16.21C25.9165 14.68 27.6265 11.92 27.6265 8.74C27.6265 3.91 23.7165 0 18.8865 0C14.0565 0 10.1465 3.91 10.1465 8.74C10.1465 11.92 11.8665 14.68 14.3965 16.21C12.2665 16.58 10.2665 17.52 8.63646 18.97L1.95646 24.91C-0.683536 27.25 -0.643536 31.38 2.02646 33.68L9.96646 40.51L7.63646 58.76C7.21646 62.04 9.60646 65.01 12.9065 65.29C15.5965 65.52 18.0165 63.88 18.8865 61.44C19.7565 63.88 22.1765 65.53 24.8665 65.29C28.1665 65.01 30.5565 62.03 30.1365 58.76L27.8065 40.51L35.7465 33.68C38.4165 31.38 38.4565 27.25 35.8165 24.91ZM13.0565 8.74C13.0565 5.52 15.6665 2.91 18.8865 2.91C22.1065 2.91 24.7165 5.52 24.7165 8.74C24.7165 11.96 22.1065 14.57 18.8865 14.57C15.6665 14.57 13.0565 11.96 13.0565 8.74ZM33.8465 31.48L24.7165 39.34L27.2465 59.15C27.4565 60.79 26.2565 62.27 24.6165 62.41C23.0565 62.54 21.6765 61.43 21.4865 59.87L19.7165 45.59C19.6665 45.17 19.3065 44.86 18.8865 44.86C18.4665 44.86 18.1065 45.17 18.0565 45.59L16.2965 59.87C16.1065 61.42 14.7165 62.54 13.1665 62.41C11.5165 62.27 10.3265 60.79 10.5365 59.15L13.0665 39.34L3.93646 31.48C2.60646 30.33 2.58646 28.27 3.89646 27.09L10.5765 21.15C12.1765 19.73 14.2465 18.94 16.3865 18.94H21.3965C23.5365 18.94 25.6065 19.73 27.2065 21.15L33.8865 27.09C35.2065 28.26 35.1865 30.33 33.8465 31.48Z" fill="#fff" />
</svg>
