<svg width="64" height="64" viewBox="0 0 44 65" fill="none" xmlns="http://www.w3.org/2000/svg">
    <path d="M36.8295 1.455C36.7445 0.630002 36.0445 0 35.2145 0H8.03445C7.20445 0 6.50445 0.630002 6.41945 1.455L0.00945459 62.455C-0.0405454 62.915 0.109455 63.37 0.419455 63.71C0.729455 64.05 1.16446 64.25 1.62946 64.25H14.9595C15.7595 64.25 16.4395 63.665 16.5645 62.875L21.6295 30.65L26.6945 62.875C26.8195 63.665 27.4995 64.25 28.2995 64.25H41.6295C42.0895 64.25 42.5295 64.055 42.8395 63.71C43.1495 63.365 43.2945 62.91 43.2495 62.455L36.8395 1.455H36.8295ZM34.4095 9.5H30.2545V3.25H33.7545L34.4095 9.5ZM16.2495 9.5V3.25H26.9995V9.5H16.2495ZM12.9995 3.25V9.5H8.84446L9.49945 3.25H12.9995ZM29.6845 61L23.2295 19.935C23.1045 19.145 22.4245 18.56 21.6245 18.56C20.8245 18.56 20.1445 19.145 20.0195 19.935L13.5645 61H3.42945L8.49945 12.75H34.7495L39.8195 61H29.6845Z" fill="#CBA6FF" />
</svg>
