<svg width="64" height="64" viewBox="0 0 65 65" fill="none" xmlns="http://www.w3.org/2000/svg">
    <path d="M63.889 2.92C63.619 2.585 63.224 2.37 62.794 2.325L40.759 0.01V0.06C40.709 0.05 40.664 0.035 40.614 0.03C40.554 0.02 40.494 0.015 40.429 0.01C40.399 0.01 40.369 0 40.339 0C40.324 0 40.309 0 40.294 0C40.234 0 40.169 0.01 40.109 0.02C40.064 0.025 40.014 0.03 39.969 0.045C39.919 0.055 39.869 0.075 39.819 0.09C39.764 0.11 39.709 0.125 39.654 0.15C39.639 0.155 39.624 0.16 39.609 0.165C35.394 2.26 28.269 2.26 24.054 0.165C24.039 0.16 24.024 0.155 24.014 0.15C23.959 0.125 23.904 0.105 23.844 0.085C23.794 0.07 23.749 0.05 23.699 0.04C23.649 0.03 23.604 0.025 23.554 0.015C23.529 0.015 23.499 0.005 23.474 0C23.444 0 23.409 0 23.379 0C23.364 0 23.349 0 23.334 0C23.304 0 23.274 0.01 23.239 0.01C23.179 0.01 23.119 0.02 23.059 0.03C23.009 0.04 22.964 0.05 22.914 0.065C22.899 0.065 22.879 0.07 22.864 0.075L1.45399 2.325C1.02399 2.37 0.633993 2.585 0.358993 2.92C0.0889927 3.255 -0.0360074 3.68 0.00899265 4.11L1.60399 19.27C1.69899 20.165 2.49899 20.81 3.38899 20.715L10.749 19.94V62.62C10.749 63.515 11.479 64.245 12.374 64.245H51.874C52.769 64.245 53.499 63.515 53.499 62.62V19.945L60.859 20.72C61.749 20.81 62.549 20.165 62.644 19.275L64.239 4.115C64.284 3.685 64.159 3.26 63.884 2.925L63.889 2.92ZM38.234 4.155C37.224 6.695 34.744 8.5 31.849 8.5C28.954 8.5 26.474 6.695 25.464 4.155C27.454 4.72 29.649 5.01 31.849 5.01C34.049 5.01 36.249 4.72 38.234 4.155ZM59.584 17.315L52.044 16.525C51.589 16.48 51.129 16.625 50.789 16.935C50.449 17.245 50.249 17.68 50.249 18.145V61.005H13.999V18.14C13.999 17.68 13.804 17.24 13.459 16.93C13.114 16.62 12.659 16.475 12.204 16.52L4.66399 17.31L3.40899 5.38L21.889 3.435C22.749 8.15 26.879 11.74 31.839 11.74C36.799 11.74 40.964 8.12 41.799 3.375L60.829 5.375L59.574 17.305L59.584 17.315Z" fill="#CBA6FF" />
</svg>
